GIL06_fast3_ik
nRows=3
nColumns=375

# SIMM Motion File Header:
name GIL06_fast3_ik
datacolumns 375
datarows 3
otherdata 1
range 0.35000000 0.36667000
endheader
time	pelvis_tx	pelvis_ty	pelvis_tz	pelvis_tilt	pelvis_list	pelvis_rotation	hip_flexion_r	hip_adduction_r	hip_rotation_r	knee_angle_r	ankle_angle_r	hip_flexion_l	hip_adduction_l	hip_rotation_l	knee_angle_l	ankle_angle_l	lumbar_extension	lumbar_bending	lumbar_rotation	subtalar_angle_r	mtp_angle_r	subtalar_angle_l	mtp_angle_l	asis_r_px	asis_r_py	asis_r_pz	asis_l_px	asis_l_py	asis_l_pz	midasis_px	midasis_py	midasis_pz	psis_r_px	psis_r_py	psis_r_pz	psis_l_px	psis_l_py	psis_l_pz	hip_r_px	hip_r_py	hip_r_pz	hip_l_px	hip_l_py	hip_l_pz	midhip_px	midhip_py	midhip_pz	epicondLat_r_px	epicondLat_r_py	epicondLat_r_pz	epicondMed_r_px	epicondMed_r_py	epicondMed_r_pz	thighwand_r_px	thighwand_r_py	thighwand_r_pz	upperleg1_r_px	upperleg1_r_py	upperleg1_r_pz	upperleg2_r_px	upperleg2_r_py	upperleg2_r_pz	malleolusLat_r_px	malleolusLat_r_py	malleolusLat_r_pz	malleolusMedv_r_px	malleolusMedv_r_py	malleolusMedv_r_pz	shankwand_r_px	shankwand_r_py	shankwand_r_pz	lowerleg1_r_px	lowerleg1_r_py	lowerleg1_r_pz	knee_r_px	knee_r_py	knee_r_pz	ankle_r_px	ankle_r_py	ankle_r_pz	toe_r_px	toe_r_py	toe_r_pz	epicondLat_l_px	epicondLat_l_py	epicondLat_l_pz	epicondMed_l_px	epicondMed_l_py	epicondMed_l_pz	thighwand_l_px	thighwand_l_py	thighwand_l_pz	upperleg1_l_px	upperleg1_l_py	upperleg1_l_pz	upperleg2_l_px	upperleg2_l_py	upperleg2_l_pz	malleolusLat_l_px	malleolusLat_l_py	malleolusLat_l_pz	malleolusMedv_l_px	malleolusMedv_l_py	malleolusMedv_l_pz	shankwand_l_px	shankwand_l_py	shankwand_l_pz	lowerleg1_l_px	lowerleg1_l_py	lowerleg1_l_pz	knee_l_px	knee_l_py	knee_l_pz	ankle_l_px	ankle_l_py	ankle_l_pz	toe_l_px	toe_l_py	toe_l_pz	subclavicle_r_px	subclavicle_r_py	subclavicle_r_pz	subclavicle_l_px	subclavicle_l_py	subclavicle_l_pz	neck_px	neck_py	neck_pz	sternalnotch_px	sternalnotch_py	sternalnotch_pz	xyphoidprocess_px	xyphoidprocess_py	xyphoidprocess_pz	midhip_tx	midhip_ty	midhip_tz	hip_r_tx	hip_r_ty	hip_r_tz	hip_l_tx	hip_l_ty	hip_l_tz	knee_r_tx	knee_r_ty	knee_r_tz	knee_l_tx	knee_l_ty	knee_l_tz	ankle_r_tx	ankle_r_ty	ankle_r_tz	ankle_l_tx	ankle_l_ty	ankle_l_tz	midasis_tx	midasis_ty	midasis_tz	asis_r_tx	asis_r_ty	asis_r_tz	asis_l_tx	asis_l_ty	asis_l_tz	psis_r_tx	psis_r_ty	psis_r_tz	psis_l_tx	psis_l_ty	psis_l_tz	epicondLat_r_tx	epicondLat_r_ty	epicondLat_r_tz	epicondLat_l_tx	epicondLat_l_ty	epicondLat_l_tz	epicondMed_r_tx	epicondMed_r_ty	epicondMed_r_tz	epicondMed_l_tx	epicondMed_l_ty	epicondMed_l_tz	malleolusLat_r_tx	malleolusLat_r_ty	malleolusLat_r_tz	malleolusLat_l_tx	malleolusLat_l_ty	malleolusLat_l_tz	malleolusMedv_r_tx	malleolusMedv_r_ty	malleolusMedv_r_tz	malleolusMedv_l_tx	malleolusMedv_l_ty	malleolusMedv_l_tz	neck_tx	neck_ty	neck_tz	subclavicle_r_tx	subclavicle_r_ty	subclavicle_r_tz	subclavicle_l_tx	subclavicle_l_ty	subclavicle_l_tz	sternalnotch_tx	sternalnotch_ty	sternalnotch_tz	xyphoidprocess_tx	xyphoidprocess_ty	xyphoidprocess_tz	thighwand_r_tx	thighwand_r_ty	thighwand_r_tz	thighwand_l_tx	thighwand_l_ty	thighwand_l_tz	upperleg1_r_tx	upperleg1_r_ty	upperleg1_r_tz	upperleg1_l_tx	upperleg1_l_ty	upperleg1_l_tz	upperleg2_r_tx	upperleg2_r_ty	upperleg2_r_tz	upperleg2_l_tx	upperleg2_l_ty	upperleg2_l_tz	shankwand_r_tx	shankwand_r_ty	shankwand_r_tz	shankwand_l_tx	shankwand_l_ty	shankwand_l_tz	lowerleg1_r_tx	lowerleg1_r_ty	lowerleg1_r_tz	lowerleg1_l_tx	lowerleg1_l_ty	lowerleg1_l_tz	toe_r_tx	toe_r_ty	toe_r_tz	toe_l_tx	toe_l_ty	toe_l_tz	ground_force_vx	ground_force_vy	ground_force_vz	ground_force_px	ground_force_py	ground_force_pz	ground_force_vx	ground_force_vy	ground_force_vz	ground_force_px	ground_force_py	ground_force_pz	ground_torque_x	ground_torque_y	ground_torque_z	ground_torque_x	ground_torque_y	ground_torque_z	ground_marker_px	ground_marker_py	ground_marker_pz	ground_marker_px	ground_marker_py	ground_marker_pz	ground_marker_px	ground_marker_py	ground_marker_pz	ground_marker_px	ground_marker_py	ground_marker_pz	ground_marker_px	ground_marker_py	ground_marker_pz	ground_marker_px	ground_marker_py	ground_marker_pz	ground_marker_px	ground_marker_py	ground_marker_pz	ground_marker_px	ground_marker_py	ground_marker_pz	ground_marker_px	ground_marker_py	ground_marker_pz	ground_marker_px	ground_marker_py	ground_marker_pz	ground_marker_px	ground_marker_py	ground_marker_pz	ground_marker_px	ground_marker_py	ground_marker_pz	ground_marker_px	ground_marker_py	ground_marker_pz	ground_marker_px	ground_marker_py	ground_marker_pz	ground_marker_px	ground_marker_py	ground_marker_pz	ground_marker_px	ground_marker_py	ground_marker_pz	ground_marker_px	ground_marker_py	ground_marker_pz	ground_marker_px	ground_marker_py	ground_marker_pz	ground_marker_px	ground_marker_py	ground_marker_pz	ground_marker_px	ground_marker_py	ground_marker_pz	ground_marker_px	ground_marker_py	ground_marker_pz	ground_marker_px	ground_marker_py	ground_marker_pz	ground_marker_px	ground_marker_py	ground_marker_pz	ground_marker_px	ground_marker_py	ground_marker_pz	ground_marker_px	ground_marker_py	ground_marker_pz	ground_marker_px	ground_marker_py	ground_marker_pz	ground_marker_px	ground_marker_py	ground_marker_pz	ground_marker_px	ground_marker_py	ground_marker_pz	ground_marker_px	ground_marker_py	ground_marker_pz	ground_marker_px	ground_marker_py	ground_marker_pz	ground_marker_px	ground_marker_py	ground_marker_pz	ground_marker_px	ground_marker_py	ground_marker_pz	ground_marker_px	ground_marker_py	ground_marker_pz	ground_marker_px	ground_marker_py	ground_marker_pz	ground_marker_px	ground_marker_py	ground_marker_pz	ground_marker_px	ground_marker_py	ground_marker_pz	ground_marker_px	ground_marker_py	ground_marker_pz
      0.35000000	      0.33449757	      0.83903863	     -0.28571318	     -4.06475345	      1.06069162	     -0.05965389	     32.89341818	     -2.04461683	      3.54827389	    -45.28201145	      4.63546714	     -1.96026344	      5.14083047	     -3.58982416	     -5.24574424	      6.37631550	      5.00943453	     -2.64580314	      4.58603102	      0.00000000	      0.00000000	      0.00000000	      0.00000000	      0.39048669	      0.82143551	     -0.16886171	      0.38965822	      0.82519626	     -0.41475220	      0.34791276	      0.83808506	     -0.28569918	      0.15717591	      0.92645063	     -0.25564789	      0.15265376	      0.92592220	     -0.31070393	      0.26206203	      0.77905084	     -0.20675917	      0.26243915	      0.78200129	     -0.36715951	      0.26225059	      0.78052606	     -0.28695934	      0.44984691	      0.44557510	     -0.13948646	      0.42332849	      0.43824227	     -0.28197295	      0.51350120	      0.65689862	     -0.15262871	      0.46806285	      0.65710801	     -0.17050144	      0.47905129	      0.58017325	     -0.17498624	      0.32870950	      0.09895322	     -0.13290988	      0.34396536	      0.09799063	     -0.20811234	      0.45769050	      0.21415338	     -0.16127130	      0.41517042	      0.23189862	     -0.17378022	      0.44358367	      0.45430648	     -0.19918600	      0.33927927	      0.10152465	     -0.18048017	      0.44119410	      0.05690084	     -0.16023868	      0.21282233	      0.40481548	     -0.40690842	      0.22450458	      0.40019150	     -0.25882581	      0.41506042	      0.56450469	     -0.38206842	      0.36932425	      0.58498133	     -0.38505179	      0.34460654	      0.51600186	     -0.37560060	      0.12113406	      0.04831351	     -0.35189067	      0.14920826	      0.06547596	     -0.27901868	      0.12192965	      0.15659974	     -0.42368709	      0.13336674	      0.16983275	     -0.37803154	      0.22046190	      0.41855016	     -0.34084790	      0.14863152	      0.05836878	     -0.31266812	      0.24074719	      0.02583738	     -0.34095812	      0.29645921	      1.28064611	     -0.24645897	      0.29867339	      1.28256494	     -0.32833707	      0.15738755	      1.32341286	     -0.28803194	      0.28240364	      1.27340539	     -0.30018211	      0.34716410	      1.21080050	     -0.29869992	      0.25528100	      0.77525400	     -0.28220700	      0.23634000	      0.77744300	     -0.20304000	      0.23713000	      0.77832200	     -0.35866500	      0.43584700	      0.42442900	     -0.18404100	      0.20546300	      0.42258600	     -0.33056500	      0.33969500	      0.08963300	     -0.20330900	      0.14032800	      0.06103700	     -0.30684300	      0.36369200	      0.85146300	     -0.27979300	      0.36307600	      0.85077700	     -0.15838600	      0.36430800	      0.85214900	     -0.40119900	      0.12391300	      0.91722500	     -0.24656900	      0.12099500	      0.91969800	     -0.30133100	      0.43798400	      0.42947400	     -0.11275100	      0.20084700	      0.41737600	     -0.40172600	      0.45358700	      0.42377000	     -0.25698000	      0.19853200	      0.41562700	     -0.24591800	      0.32451500	      0.09196100	     -0.16800500	      0.12416400	      0.06158500	     -0.34288000	      0.35707200	      0.09172200	     -0.23639400	      0.13838400	      0.07890400	     -0.26613100	      0.16536000	      1.34588500	     -0.28901700	      0.29391000	      1.28297900	     -0.24593300	      0.29565600	      1.28203500	     -0.32978300	      0.27860900	      1.27649300	     -0.30048700	      0.33193100	      1.20418000	     -0.29717300	      0.50263200	      0.64376600	     -0.11740200	      0.40115900	      0.57397900	     -0.35847900	      0.45943700	      0.64266400	     -0.13721700	      0.35435100	      0.59372900	     -0.36711400	      0.48164200	      0.56850000	     -0.14296400	      0.32921300	      0.52668100	     -0.35690800	      0.45191600	      0.20708500	     -0.15557000	      0.13782600	      0.16021000	     -0.41644900	      0.41278200	      0.22067700	     -0.17671600	      0.14118200	      0.17555300	     -0.37022800	      0.43198000	      0.05972200	     -0.18624300	      0.23922600	      0.04526100	     -0.32365700	      0.00000000	      0.00000000	      0.00000000	      0.72982623	      0.00000000	     -0.22313940	      4.13174735	    644.22700229	     15.15099442	      0.22636317	      0.00000000	     -0.32542023	      0.00000000	      0.00000000	      0.00000000	      0.00000000	     -5.61823926	      0.00000000	      0.25528142	      0.77525365	     -0.28220665	      0.23634045	      0.77744269	     -0.20304009	      0.23713000	      0.77832192	     -0.35866472	      0.43584681	      0.42442942	     -0.18404052	      0.20546347	      0.42258555	     -0.33056548	      0.33969510	      0.08963275	     -0.20330878	      0.14032842	      0.06103738	     -0.30684307	      0.36369169	      0.85146296	     -0.27979261	      0.36307573	      0.85077709	     -0.15838611	      0.36430764	      0.85214889	     -0.40119910	      0.12391331	      0.91722530	     -0.24656877	      0.12099545	      0.91969818	     -0.30133054	      0.43798417	      0.42947423	     -0.11275074	      0.20084749	      0.41737553	     -0.40172586	      0.45358676	      0.42377016	     -0.25698000	      0.19853164	      0.41562653	     -0.24591850	      0.32451475	      0.09196063	     -0.16800456	      0.12416443	      0.06158490	     -0.34288022	      0.35707214	      0.09172231	     -0.23639357	      0.13838370	      0.07890369	     -0.26613075	      0.16536012	      1.34588468	     -0.28901693	      0.29391024	      1.28297913	     -0.24593271	      0.29565632	      1.28203535	     -0.32978338	      0.27860859	      1.27649271	     -0.30048656	      0.33193099	      1.20418000	     -0.29717299	      0.50263232	      0.64376640	     -0.11740217	      0.40115878	      0.57397884	     -0.35847881	      0.45943704	      0.64266402	     -0.13721734	      0.35435119	      0.59372938	     -0.36711353	      0.48164219	      0.56849986	     -0.14296368	      0.32921267	      0.52668089	     -0.35690755	      0.45191565	      0.20708473	     -0.15556987	      0.13782644	      0.16021036	     -0.41644931	      0.41278198	      0.22067741	     -0.17671594	      0.14118230	      0.17555261	     -0.37022811	      0.43198013	      0.05972244	     -0.18624276	      0.23922612	      0.04526149	     -0.32365653
      0.35833000	      0.34530291	      0.83767090	     -0.28595428	     -4.14795418	      0.84423406	      0.32302407	     33.33294862	     -1.83582387	      3.63982398	    -42.14760540	      4.32737551	     -2.83135297	      5.00281175	     -3.18073871	     -4.98631800	      6.83108558	      5.05881316	     -2.47584852	      4.06293785	      0.00000000	      0.00000000	      0.00000000	      0.00000000	      0.40207744	      0.82037606	     -0.16943622	      0.39954908	      0.82333008	     -0.41532612	      0.35871660	      0.83669923	     -0.28603010	      0.16831036	      0.92542095	     -0.25494917	      0.16340588	      0.92471776	     -0.30997052	      0.27333685	      0.77804084	     -0.20630304	      0.27260573	      0.78046380	     -0.36671099	      0.27297129	      0.77925232	     -0.28650702	      0.46388971	      0.44581943	     -0.14062661	      0.43599977	      0.43819084	     -0.28283544	      0.52607103	      0.65752916	     -0.15457978	      0.48045644	      0.65743524	     -0.17199878	      0.49188638	      0.58056748	     -0.17652848	      0.36417432	      0.09308200	     -0.13316875	      0.37852971	      0.09311943	     -0.20855442	      0.48554099	      0.21595002	     -0.16291989	      0.44186792	      0.23108406	     -0.17487597	      0.45636978	      0.45483280	     -0.20025751	      0.37397906	      0.09633610	     -0.18086092	      0.47846913	      0.05741718	     -0.16202534	      0.21695296	      0.40405431	     -0.40582115	      0.22853752	      0.39949818	     -0.25772876	      0.42172199	      0.56052259	     -0.38121962	      0.37632050	      0.58172481	     -0.38424620	      0.35049845	      0.51316690	     -0.37468098	      0.12118014	      0.04871897	     -0.35029365	      0.14946030	      0.06565873	     -0.27744920	      0.12321418	      0.15688811	     -0.42224200	      0.13480931	      0.17005237	     -0.37660644	      0.22477099	      0.41780106	     -0.33978225	      0.14879706	      0.05851152	     -0.31108857	      0.24073243	      0.02562370	     -0.33955243	      0.30738811	      1.27939991	     -0.24629792	      0.30977956	      1.28130389	     -0.32817138	      0.16841628	      1.32219091	     -0.28817864	      0.29344696	      1.27215297	     -0.30005003	      0.35818986	      1.20953365	     -0.29841704	      0.26596300	      0.77377300	     -0.28166800	      0.24759300	      0.77614900	     -0.20234700	      0.24728300	      0.77671400	     -0.35797500	      0.44949000	      0.42493900	     -0.18566200	      0.21002600	      0.42199500	     -0.32956400	      0.37396300	      0.08473500	     -0.20271300	      0.14076700	      0.06140600	     -0.30617000	      0.37447700	      0.84987800	     -0.28014700	      0.37471800	      0.84943600	     -0.15856700	      0.37423500	      0.85031900	     -0.40172700	      0.13496600	      0.91592600	     -0.24528600	      0.13169700	      0.91838300	     -0.30004000	      0.45229500	      0.42993700	     -0.11439200	      0.20533200	      0.41678900	     -0.40072000	      0.46434900	      0.42378700	     -0.25856100	      0.20687900	      0.41201700	     -0.24441100	      0.35847700	      0.08640800	     -0.16750500	      0.12452200	      0.06219100	     -0.34216600	      0.39172300	      0.08777000	     -0.23570700	      0.13956700	      0.07906700	     -0.26544300	      0.17613100	      1.34456800	     -0.28910000	      0.30468100	      1.28156800	     -0.24598000	      0.30715900	      1.28057300	     -0.32993900	      0.28974900	      1.27504500	     -0.30038200	      0.34317700	      1.20275200	     -0.29690400	      0.51521800	      0.64396500	     -0.11968600	      0.40819500	      0.57086900	     -0.35766400	      0.47159500	      0.64251400	     -0.13857100	      0.36089300	      0.59100800	     -0.36583400	      0.49411400	      0.56849800	     -0.14495400	      0.33637800	      0.52454100	     -0.35588900	      0.47874700	      0.20909100	     -0.15526800	      0.13914200	      0.16074800	     -0.41570200	      0.43957000	      0.22026200	     -0.17644100	      0.14302600	      0.17584300	     -0.36936100	      0.46770700	      0.06012600	     -0.18512000	      0.23939400	      0.04529400	     -0.32328800	      0.00000000	      0.00000000	      0.00000000	      0.73258698	      0.00000000	     -0.22281265	      8.56061534	    667.41549535	     12.75855736	      0.22980910	      0.00000000	     -0.32426608	      0.00000000	      0.00000000	      0.00000000	      0.00000000	     -6.34825195	      0.00000000	      0.26596272	      0.77377307	     -0.28166831	      0.24759255	      0.77614880	     -0.20234747	      0.24728313	      0.77671438	     -0.35797524	      0.44948986	      0.42493859	     -0.18566194	      0.21002550	      0.42199466	     -0.32956433	      0.37396306	      0.08473475	     -0.20271307	      0.14076693	      0.06140635	     -0.30617008	      0.37447667	      0.84987760	     -0.28014705	      0.37471843	      0.84943581	     -0.15856673	      0.37423494	      0.85031945	     -0.40172735	      0.13496603	      0.91592604	     -0.24528597	      0.13169746	      0.91838312	     -0.30003992	      0.45229545	      0.42993733	     -0.11439209	      0.20533189	      0.41678852	     -0.40071991	      0.46434909	      0.42378688	     -0.25856060	      0.20687883	      0.41201749	     -0.24441056	      0.35847691	      0.08640809	     -0.16750471	      0.12452181	      0.06219120	     -0.34216633	      0.39172348	      0.08776952	     -0.23570712	      0.13956678	      0.07906702	     -0.26544303	      0.17613076	      1.34456849	     -0.28910026	      0.30468124	      1.28156817	     -0.24597956	      0.30715913	      1.28057313	     -0.32993922	      0.28974894	      1.27504504	     -0.30038226	      0.34317741	      1.20275235	     -0.29690424	      0.51521790	      0.64396465	     -0.11968556	      0.40819469	      0.57086885	     -0.35766444	      0.47159457	      0.64251405	     -0.13857111	      0.36089289	      0.59100837	     -0.36583441	      0.49411374	      0.56849819	     -0.14495426	      0.33637834	      0.52454072	     -0.35588905	      0.47874656	      0.20909141	     -0.15526779	      0.13914178	      0.16074790	     -0.41570154	      0.43957016	      0.22026154	     -0.17644082	      0.14302602	      0.17584294	     -0.36936089	      0.46770716	      0.06012563	     -0.18511990	      0.23939393	      0.04529390	     -0.32328847
      0.36667000	      0.35629604	      0.83607177	     -0.28603767	     -4.27197019	      0.65891423	      0.70654111	     33.75272328	     -1.67186432	      3.73444884	    -38.98957905	      3.93618342	     -3.66104727	      4.87173462	     -2.68875468	     -4.73616996	      7.26963323	      5.16090580	     -2.37248679	      3.93918546	      0.00000000	      0.00000000	      0.00000000	      0.00000000	      0.41383908	      0.81897634	     -0.16986769	      0.40961652	      0.82126504	     -0.41574143	      0.36970685	      0.83507191	     -0.28620350	      0.17970390	      0.92427508	     -0.25405104	      0.17441762	      0.92343207	     -0.30903505	      0.28475939	      0.77680941	     -0.20572790	      0.28292404	      0.77879642	     -0.36613301	      0.28384172	      0.77780291	     -0.28593045	      0.47767162	      0.44565387	     -0.14157392	      0.44845087	      0.43773544	     -0.28349940	      0.53860761	      0.65767096	     -0.15633112	      0.49282815	      0.65732130	     -0.17330876	      0.50461560	      0.58050967	     -0.17787445	      0.39947936	      0.08817238	     -0.13367868	      0.41289002	      0.08917562	     -0.20923148	      0.51286254	      0.21816317	     -0.16463343	      0.46821599	      0.23065705	     -0.17603135	      0.46891866	      0.45490705	     -0.20112051	      0.40849067	      0.09207515	     -0.18147857	      0.51514446	      0.05875941	     -0.16408123	      0.22134078	      0.40325622	     -0.40470759	      0.23260478	      0.39876762	     -0.25658841	      0.42853781	      0.55648124	     -0.38002162	      0.38348530	      0.57839950	     -0.38316041	      0.35655735	      0.51027838	     -0.37352421	      0.12138711	      0.04914111	     -0.34882799	      0.14976091	      0.06585286	     -0.27596729	      0.12477562	      0.15717934	     -0.42092185	      0.13645944	      0.17027159	     -0.37528819	      0.22923815	      0.41701103	     -0.33867808	      0.14906141	      0.05866711	     -0.30959771	      0.24084875	      0.02539128	     -0.33808833	      0.31883879	      1.27801445	     -0.24655389	      0.32084113	      1.27984568	     -0.32843945	      0.17967978	      1.32080323	     -0.28781070	      0.30464028	      1.27072362	     -0.30023265	      0.36937482	      1.20808960	     -0.29885244	      0.27678900	      0.77213100	     -0.28109500	      0.25896700	      0.77465400	     -0.20162500	      0.25757000	      0.77502000	     -0.35724800	      0.46281700	      0.42507500	     -0.18729700	      0.21474100	      0.42142400	     -0.32865700	      0.40803900	      0.08060700	     -0.20206100	      0.14131600	      0.06180900	     -0.30563100	      0.38543600	      0.84805500	     -0.28040600	      0.38652900	      0.84776800	     -0.15856000	      0.38434200	      0.84834100	     -0.40225100	      0.14613700	      0.91458300	     -0.24390800	      0.14251900	      0.91704700	     -0.29865900	      0.46627300	      0.43001100	     -0.11605100	      0.21007900	      0.41623500	     -0.39981600	      0.47614300	      0.42379200	     -0.26133500	      0.21213900	      0.41082800	     -0.24334700	      0.39238600	      0.08158900	     -0.16690100	      0.12495800	      0.06284700	     -0.34157000	      0.42666900	      0.08393600	     -0.23473000	      0.13936700	      0.07990100	     -0.26472100	      0.18718400	      1.34320700	     -0.28887300	      0.31592300	      1.27973900	     -0.24632400	      0.31885500	      1.27956400	     -0.32964300	      0.30085800	      1.27342700	     -0.30026500	      0.35477400	      1.20145900	     -0.29747800	      0.52756000	      0.64349400	     -0.12198700	      0.41530200	      0.56790600	     -0.35661100	      0.48482800	      0.64206700	     -0.14082000	      0.36799500	      0.58874600	     -0.36396700	      0.50666900	      0.56808700	     -0.14726600	      0.34250600	      0.52259200	     -0.35459900	      0.50512600	      0.21144700	     -0.15520200	      0.14048200	      0.16138200	     -0.41510000	      0.46621300	      0.21979600	     -0.17670200	      0.14381700	      0.17628100	     -0.36893000	      0.50301000	      0.06119300	     -0.18429100	      0.23953400	      0.04534600	     -0.32301500	      0.00000000	      0.00000000	      0.00000000	      0.73490741	      0.00000000	     -0.22249451	     13.82539084	    691.87137285	     11.67685110	      0.23316252	      0.00000000	     -0.32324847	      0.00000000	      0.00000000	      0.00000000	      0.00000000	     -7.02151514	      0.00000000	      0.27678886	      0.77213067	     -0.28109467	      0.25896683	      0.77465433	     -0.20162542	      0.25757000	      0.77502024	     -0.35724783	      0.46281725	      0.42507520	     -0.18729675	      0.21474086	      0.42142409	     -0.32865706	      0.40803900	      0.08060657	     -0.20206116	      0.14131601	      0.06180870	     -0.30563128	      0.38543552	      0.84805465	     -0.28040588	      0.38652915	      0.84776813	     -0.15856043	      0.38434187	      0.84834111	     -0.40225133	      0.14613745	      0.91458267	     -0.24390775	      0.14251915	      0.91704655	     -0.29865897	      0.46627343	      0.43001083	     -0.11605109	      0.21007945	      0.41623500	     -0.39981601	      0.47614345	      0.42379194	     -0.26133507	      0.21213937	      0.41082802	     -0.24334750	      0.39238575	      0.08158877	     -0.16690066	      0.12495840	      0.06284741	     -0.34157014	      0.42666921	      0.08393648	     -0.23473017	      0.13936745	      0.07990068	     -0.26472104	      0.18718426	      1.34320664	     -0.28887272	      0.31592306	      1.27973890	     -0.24632408	      0.31885478	      1.27956426	     -0.32964280	      0.30085769	      1.27342737	     -0.30026484	      0.35477370	      1.20145881	     -0.29747787	      0.52755952	      0.64349419	     -0.12198666	      0.41530177	      0.56790614	     -0.35661119	      0.48482767	      0.64206702	     -0.14081974	      0.36799538	      0.58874625	     -0.36396739	      0.50666910	      0.56808686	     -0.14726594	      0.34250650	      0.52259248	     -0.35459864	      0.50512630	      0.21144740	     -0.15520218	      0.14048232	      0.16138196	     -0.41510019	      0.46621343	      0.21979630	     -0.17670186	      0.14381722	      0.17628133	     -0.36892962	      0.50300997	      0.06119290	     -0.18429112	      0.23953444	      0.04534582	     -0.32301530
